solid ascii
  facet normal 0.000000e+000 -6.785982e-001 -6.785982e-001
    outer loop
      vertex   -1.485858e+002 2.400000e+001 0.000000e+000
      vertex   -1.364142e+002 2.400000e+001 0.000000e+000
      vertex   -1.490000e+002 2.300000e+001 1.000000e+000
    endloop
  endfacet
  facet normal 0.000000e+000 -7.895782e-002 -7.895782e-002
    outer loop
      vertex   -1.490000e+002 2.300000e+001 1.000000e+000
      vertex   -1.364142e+002 2.400000e+001 0.000000e+000
      vertex   -1.360000e+002 2.300000e+001 1.000000e+000
    endloop
  endfacet
  facet normal 4.798412e-001 -4.798415e-001 -6.785990e-001
    outer loop
      vertex   -1.364142e+002 2.400000e+001 0.000000e+000
      vertex   -1.340000e+002 2.641421e+001 0.000000e+000
      vertex   -1.360000e+002 2.300000e+001 1.000000e+000
    endloop
  endfacet
  facet normal 1.732561e-001 -1.732561e-001 -2.450211e-001
    outer loop
      vertex   -1.360000e+002 2.300000e+001 1.000000e+000
      vertex   -1.340000e+002 2.641421e+001 0.000000e+000
      vertex   -1.330000e+002 2.600000e+001 1.000000e+000
    endloop
  endfacet
  facet normal 6.785984e-001 0.000000e+000 -6.785984e-001
    outer loop
      vertex   -1.340000e+002 2.641421e+001 0.000000e+000
      vertex   -1.340000e+002 3.858578e+001 0.000000e+000
      vertex   -1.330000e+002 2.600000e+001 1.000000e+000
    endloop
  endfacet
  facet normal 7.895782e-002 0.000000e+000 -7.895782e-002
    outer loop
      vertex   -1.330000e+002 2.600000e+001 1.000000e+000
      vertex   -1.340000e+002 3.858578e+001 0.000000e+000
      vertex   -1.330000e+002 3.900000e+001 1.000000e+000
    endloop
  endfacet
  facet normal 4.798414e-001 4.798414e-001 -6.785989e-001
    outer loop
      vertex   -1.330000e+002 3.900000e+001 1.000000e+000
      vertex   -1.340000e+002 3.858578e+001 0.000000e+000
      vertex   -1.360000e+002 4.200000e+001 1.000000e+000
    endloop
  endfacet
  facet normal 4.014135e-001 4.014135e-001 -5.676851e-001
    outer loop
      vertex   -1.360000e+002 4.200000e+001 1.000000e+000
      vertex   -1.340000e+002 3.858578e+001 0.000000e+000
      vertex   -1.364142e+002 4.100000e+001 0.000000e+000
    endloop
  endfacet
  facet normal 0.000000e+000 6.785982e-001 -6.785982e-001
    outer loop
      vertex   -1.490000e+002 4.200000e+001 1.000000e+000
      vertex   -1.360000e+002 4.200000e+001 1.000000e+000
      vertex   -1.485858e+002 4.100000e+001 0.000000e+000
    endloop
  endfacet
  facet normal 0.000000e+000 7.895782e-002 -7.895782e-002
    outer loop
      vertex   -1.485858e+002 4.100000e+001 0.000000e+000
      vertex   -1.360000e+002 4.200000e+001 1.000000e+000
      vertex   -1.364142e+002 4.100000e+001 0.000000e+000
    endloop
  endfacet
  facet normal -4.798414e-001 4.798414e-001 -6.785989e-001
    outer loop
      vertex   -1.520000e+002 3.900000e+001 1.000000e+000
      vertex   -1.490000e+002 4.200000e+001 1.000000e+000
      vertex   -1.510000e+002 3.858578e+001 0.000000e+000
    endloop
  endfacet
  facet normal -1.732560e-001 1.732560e-001 -2.450213e-001
    outer loop
      vertex   -1.510000e+002 3.858578e+001 0.000000e+000
      vertex   -1.490000e+002 4.200000e+001 1.000000e+000
      vertex   -1.485858e+002 4.100000e+001 0.000000e+000
    endloop
  endfacet
  facet normal -6.785982e-001 -0.000000e+000 -6.785982e-001
    outer loop
      vertex   -1.520000e+002 3.900000e+001 1.000000e+000
      vertex   -1.510000e+002 3.858578e+001 0.000000e+000
      vertex   -1.520000e+002 2.600000e+001 1.000000e+000
    endloop
  endfacet
  facet normal -6.521607e-001 0.000000e+000 -6.521607e-001
    outer loop
      vertex   -1.520000e+002 2.600000e+001 1.000000e+000
      vertex   -1.510000e+002 3.858578e+001 0.000000e+000
      vertex   -1.510000e+002 2.641421e+001 0.000000e+000
    endloop
  endfacet
  facet normal -4.798412e-001 -4.798415e-001 -6.785990e-001
    outer loop
      vertex   -1.485858e+002 2.400000e+001 0.000000e+000
      vertex   -1.490000e+002 2.300000e+001 1.000000e+000
      vertex   -1.510000e+002 2.641421e+001 0.000000e+000
    endloop
  endfacet
  facet normal -4.988128e-001 -4.988128e-001 -7.054277e-001
    outer loop
      vertex   -1.510000e+002 2.641421e+001 0.000000e+000
      vertex   -1.490000e+002 2.300000e+001 1.000000e+000
      vertex   -1.520000e+002 2.600000e+001 1.000000e+000
    endloop
  endfacet
  facet normal -7.071068e-001 7.071068e-001 0.000000e+000
    outer loop
      vertex   -1.490000e+002 4.200000e+001 1.000000e+000
      vertex   -1.520000e+002 3.900000e+001 1.000000e+000
      vertex   -1.490000e+002 4.200000e+001 2.500000e+000
    endloop
  endfacet
  facet normal -2.357023e-001 2.357023e-001 0.000000e+000
    outer loop
      vertex   -1.490000e+002 4.200000e+001 2.500000e+000
      vertex   -1.520000e+002 3.900000e+001 1.000000e+000
      vertex   -1.520000e+002 3.900000e+001 2.500000e+000
    endloop
  endfacet
  facet normal -1.000000e+000 0.000000e+000 0.000000e+000
    outer loop
      vertex   -1.520000e+002 3.900000e+001 1.000000e+000
      vertex   -1.520000e+002 2.600000e+001 1.000000e+000
      vertex   -1.520000e+002 3.900000e+001 2.500000e+000
    endloop
  endfacet
  facet normal -1.146241e-001 -0.000000e+000 0.000000e+000
    outer loop
      vertex   -1.520000e+002 3.900000e+001 2.500000e+000
      vertex   -1.520000e+002 2.600000e+001 1.000000e+000
      vertex   -1.520000e+002 2.600000e+001 2.500000e+000
    endloop
  endfacet
  facet normal -7.071068e-001 -7.071068e-001 0.000000e+000
    outer loop
      vertex   -1.520000e+002 2.600000e+001 1.000000e+000
      vertex   -1.490000e+002 2.300000e+001 1.000000e+000
      vertex   -1.520000e+002 2.600000e+001 2.500000e+000
    endloop
  endfacet
  facet normal -2.357023e-001 -2.357023e-001 0.000000e+000
    outer loop
      vertex   -1.520000e+002 2.600000e+001 2.500000e+000
      vertex   -1.490000e+002 2.300000e+001 1.000000e+000
      vertex   -1.490000e+002 2.300000e+001 2.500000e+000
    endloop
  endfacet
  facet normal 0.000000e+000 -1.000000e+000 0.000000e+000
    outer loop
      vertex   -1.490000e+002 2.300000e+001 1.000000e+000
      vertex   -1.360000e+002 2.300000e+001 1.000000e+000
      vertex   -1.490000e+002 2.300000e+001 2.500000e+000
    endloop
  endfacet
  facet normal 0.000000e+000 -1.146241e-001 0.000000e+000
    outer loop
      vertex   -1.490000e+002 2.300000e+001 2.500000e+000
      vertex   -1.360000e+002 2.300000e+001 1.000000e+000
      vertex   -1.360000e+002 2.300000e+001 2.500000e+000
    endloop
  endfacet
  facet normal 0.000000e+000 0.000000e+000 -7.071065e-001
    outer loop
      vertex   -1.364142e+002 2.400000e+001 0.000000e+000
      vertex   -1.485858e+002 2.400000e+001 0.000000e+000
      vertex   -1.340000e+002 2.641421e+001 0.000000e+000
    endloop
  endfacet
  facet normal -0.000000e+000 0.000000e+000 -9.865770e-001
    outer loop
      vertex   -1.340000e+002 2.641421e+001 0.000000e+000
      vertex   -1.485858e+002 2.400000e+001 0.000000e+000
      vertex   -1.340000e+002 3.858578e+001 0.000000e+000
    endloop
  endfacet
  facet normal 0.000000e+000 0.000000e+000 -1.632965e-001
    outer loop
      vertex   -1.340000e+002 3.858578e+001 0.000000e+000
      vertex   -1.485858e+002 2.400000e+001 0.000000e+000
      vertex   -1.510000e+002 2.641421e+001 0.000000e+000
    endloop
  endfacet
  facet normal -0.000000e+000 0.000000e+000 -9.865770e-001
    outer loop
      vertex   -1.340000e+002 3.858578e+001 0.000000e+000
      vertex   -1.510000e+002 2.641421e+001 0.000000e+000
      vertex   -1.364142e+002 4.100000e+001 0.000000e+000
    endloop
  endfacet
  facet normal 0.000000e+000 0.000000e+000 -5.821472e-001
    outer loop
      vertex   -1.364142e+002 4.100000e+001 0.000000e+000
      vertex   -1.510000e+002 2.641421e+001 0.000000e+000
      vertex   -1.510000e+002 3.858578e+001 0.000000e+000
    endloop
  endfacet
  facet normal -0.000000e+000 0.000000e+000 -1.632966e-001
    outer loop
      vertex   -1.364142e+002 4.100000e+001 0.000000e+000
      vertex   -1.510000e+002 3.858578e+001 0.000000e+000
      vertex   -1.485858e+002 4.100000e+001 0.000000e+000
    endloop
  endfacet
  facet normal 7.071068e-001 7.071068e-001 -0.000000e+000
    outer loop
      vertex   -1.355000e+002 3.700000e+001 2.500000e+000
      vertex   -1.380000e+002 3.950000e+001 2.500000e+000
      vertex   -1.355000e+002 3.700000e+001 5.000000e+000
    endloop
  endfacet
  facet normal 4.082483e-001 4.082483e-001 0.000000e+000
    outer loop
      vertex   -1.355000e+002 3.700000e+001 5.000000e+000
      vertex   -1.380000e+002 3.950000e+001 2.500000e+000
      vertex   -1.380000e+002 3.950000e+001 5.000000e+000
    endloop
  endfacet
  facet normal 0.000000e+000 1.000000e+000 -0.000000e+000
    outer loop
      vertex   -1.380000e+002 3.950000e+001 2.500000e+000
      vertex   -1.470000e+002 3.950000e+001 2.500000e+000
      vertex   -1.380000e+002 3.950000e+001 5.000000e+000
    endloop
  endfacet
  facet normal 0.000000e+000 2.676439e-001 0.000000e+000
    outer loop
      vertex   -1.380000e+002 3.950000e+001 5.000000e+000
      vertex   -1.470000e+002 3.950000e+001 2.500000e+000
      vertex   -1.470000e+002 3.950000e+001 5.000000e+000
    endloop
  endfacet
  facet normal -7.071068e-001 7.071068e-001 0.000000e+000
    outer loop
      vertex   -1.470000e+002 3.950000e+001 2.500000e+000
      vertex   -1.495000e+002 3.700000e+001 2.500000e+000
      vertex   -1.470000e+002 3.950000e+001 5.000000e+000
    endloop
  endfacet
  facet normal -4.082483e-001 4.082483e-001 0.000000e+000
    outer loop
      vertex   -1.470000e+002 3.950000e+001 5.000000e+000
      vertex   -1.495000e+002 3.700000e+001 2.500000e+000
      vertex   -1.495000e+002 3.700000e+001 5.000000e+000
    endloop
  endfacet
  facet normal -1.000000e+000 0.000000e+000 0.000000e+000
    outer loop
      vertex   -1.495000e+002 3.700000e+001 2.500000e+000
      vertex   -1.495000e+002 2.800000e+001 2.500000e+000
      vertex   -1.495000e+002 3.700000e+001 5.000000e+000
    endloop
  endfacet
  facet normal -2.676439e-001 -0.000000e+000 0.000000e+000
    outer loop
      vertex   -1.495000e+002 3.700000e+001 5.000000e+000
      vertex   -1.495000e+002 2.800000e+001 2.500000e+000
      vertex   -1.495000e+002 2.800000e+001 5.000000e+000
    endloop
  endfacet
  facet normal 7.071068e-001 -7.071068e-001 0.000000e+000
    outer loop
      vertex   -1.485000e+002 3.658578e+001 2.500000e+000
      vertex   -1.465858e+002 3.850000e+001 2.500000e+000
      vertex   -1.485000e+002 3.658578e+001 5.000000e+000
    endloop
  endfacet
  facet normal 4.797336e-001 -4.797336e-001 0.000000e+000
    outer loop
      vertex   -1.485000e+002 3.658578e+001 5.000000e+000
      vertex   -1.465858e+002 3.850000e+001 2.500000e+000
      vertex   -1.465858e+002 3.850000e+001 5.000000e+000
    endloop
  endfacet
  facet normal 0.000000e+000 -1.000000e+000 0.000000e+000
    outer loop
      vertex   -1.465858e+002 3.850000e+001 2.500000e+000
      vertex   -1.384142e+002 3.850000e+001 2.500000e+000
      vertex   -1.465858e+002 3.850000e+001 5.000000e+000
    endloop
  endfacet
  facet normal 0.000000e+000 -2.925537e-001 0.000000e+000
    outer loop
      vertex   -1.465858e+002 3.850000e+001 5.000000e+000
      vertex   -1.384142e+002 3.850000e+001 2.500000e+000
      vertex   -1.384142e+002 3.850000e+001 5.000000e+000
    endloop
  endfacet
  facet normal -7.071068e-001 -7.071068e-001 0.000000e+000
    outer loop
      vertex   -1.384142e+002 3.850000e+001 2.500000e+000
      vertex   -1.365000e+002 3.658578e+001 2.500000e+000
      vertex   -1.384142e+002 3.850000e+001 5.000000e+000
    endloop
  endfacet
  facet normal -4.797336e-001 -4.797336e-001 0.000000e+000
    outer loop
      vertex   -1.384142e+002 3.850000e+001 5.000000e+000
      vertex   -1.365000e+002 3.658578e+001 2.500000e+000
      vertex   -1.365000e+002 3.658578e+001 5.000000e+000
    endloop
  endfacet
  facet normal -1.000000e+000 0.000000e+000 0.000000e+000
    outer loop
      vertex   -1.365000e+002 3.658578e+001 2.500000e+000
      vertex   -1.365000e+002 2.841421e+001 2.500000e+000
      vertex   -1.365000e+002 3.658578e+001 5.000000e+000
    endloop
  endfacet
  facet normal -2.925536e-001 -0.000000e+000 0.000000e+000
    outer loop
      vertex   -1.365000e+002 3.658578e+001 5.000000e+000
      vertex   -1.365000e+002 2.841421e+001 2.500000e+000
      vertex   -1.365000e+002 2.841421e+001 5.000000e+000
    endloop
  endfacet
  facet normal 1.000000e+000 0.000000e+000 0.000000e+000
    outer loop
      vertex   -1.485000e+002 2.841421e+001 2.500000e+000
      vertex   -1.485000e+002 3.658578e+001 2.500000e+000
      vertex   -1.485000e+002 2.841421e+001 5.000000e+000
    endloop
  endfacet
  facet normal 2.925536e-001 -0.000000e+000 0.000000e+000
    outer loop
      vertex   -1.485000e+002 2.841421e+001 5.000000e+000
      vertex   -1.485000e+002 3.658578e+001 2.500000e+000
      vertex   -1.485000e+002 3.658578e+001 5.000000e+000
    endloop
  endfacet
  facet normal 7.071064e-001 7.071071e-001 -0.000000e+000
    outer loop
      vertex   -1.465858e+002 2.650000e+001 2.500000e+000
      vertex   -1.485000e+002 2.841421e+001 2.500000e+000
      vertex   -1.465858e+002 2.650000e+001 5.000000e+000
    endloop
  endfacet
  facet normal 4.797334e-001 4.797339e-001 0.000000e+000
    outer loop
      vertex   -1.465858e+002 2.650000e+001 5.000000e+000
      vertex   -1.485000e+002 2.841421e+001 2.500000e+000
      vertex   -1.485000e+002 2.841421e+001 5.000000e+000
    endloop
  endfacet
  facet normal 0.000000e+000 1.000000e+000 -0.000000e+000
    outer loop
      vertex   -1.384142e+002 2.650000e+001 2.500000e+000
      vertex   -1.465858e+002 2.650000e+001 2.500000e+000
      vertex   -1.384142e+002 2.650000e+001 5.000000e+000
    endloop
  endfacet
  facet normal 0.000000e+000 2.925537e-001 0.000000e+000
    outer loop
      vertex   -1.384142e+002 2.650000e+001 5.000000e+000
      vertex   -1.465858e+002 2.650000e+001 2.500000e+000
      vertex   -1.465858e+002 2.650000e+001 5.000000e+000
    endloop
  endfacet
  facet normal -7.071064e-001 7.071071e-001 0.000000e+000
    outer loop
      vertex   -1.365000e+002 2.841421e+001 2.500000e+000
      vertex   -1.384142e+002 2.650000e+001 2.500000e+000
      vertex   -1.365000e+002 2.841421e+001 5.000000e+000
    endloop
  endfacet
  facet normal -4.797334e-001 4.797339e-001 0.000000e+000
    outer loop
      vertex   -1.365000e+002 2.841421e+001 5.000000e+000
      vertex   -1.384142e+002 2.650000e+001 2.500000e+000
      vertex   -1.384142e+002 2.650000e+001 5.000000e+000
    endloop
  endfacet
  facet normal 1.000000e+000 0.000000e+000 0.000000e+000
    outer loop
      vertex   -1.355000e+002 2.800000e+001 2.500000e+000
      vertex   -1.355000e+002 3.700000e+001 2.500000e+000
      vertex   -1.355000e+002 2.800000e+001 5.000000e+000
    endloop
  endfacet
  facet normal 2.676439e-001 -0.000000e+000 0.000000e+000
    outer loop
      vertex   -1.355000e+002 2.800000e+001 5.000000e+000
      vertex   -1.355000e+002 3.700000e+001 2.500000e+000
      vertex   -1.355000e+002 3.700000e+001 5.000000e+000
    endloop
  endfacet
  facet normal 7.071068e-001 -7.071068e-001 0.000000e+000
    outer loop
      vertex   -1.380000e+002 2.550000e+001 2.500000e+000
      vertex   -1.355000e+002 2.800000e+001 2.500000e+000
      vertex   -1.380000e+002 2.550000e+001 5.000000e+000
    endloop
  endfacet
  facet normal 4.082483e-001 -4.082483e-001 0.000000e+000
    outer loop
      vertex   -1.380000e+002 2.550000e+001 5.000000e+000
      vertex   -1.355000e+002 2.800000e+001 2.500000e+000
      vertex   -1.355000e+002 2.800000e+001 5.000000e+000
    endloop
  endfacet
  facet normal 0.000000e+000 -1.000000e+000 0.000000e+000
    outer loop
      vertex   -1.470000e+002 2.550000e+001 2.500000e+000
      vertex   -1.380000e+002 2.550000e+001 2.500000e+000
      vertex   -1.470000e+002 2.550000e+001 5.000000e+000
    endloop
  endfacet
  facet normal 0.000000e+000 -2.676439e-001 0.000000e+000
    outer loop
      vertex   -1.470000e+002 2.550000e+001 5.000000e+000
      vertex   -1.380000e+002 2.550000e+001 2.500000e+000
      vertex   -1.380000e+002 2.550000e+001 5.000000e+000
    endloop
  endfacet
  facet normal -7.071068e-001 -7.071068e-001 0.000000e+000
    outer loop
      vertex   -1.495000e+002 2.800000e+001 2.500000e+000
      vertex   -1.470000e+002 2.550000e+001 2.500000e+000
      vertex   -1.495000e+002 2.800000e+001 5.000000e+000
    endloop
  endfacet
  facet normal -4.082483e-001 -4.082483e-001 0.000000e+000
    outer loop
      vertex   -1.495000e+002 2.800000e+001 5.000000e+000
      vertex   -1.470000e+002 2.550000e+001 2.500000e+000
      vertex   -1.470000e+002 2.550000e+001 5.000000e+000
    endloop
  endfacet
  facet normal -0.000000e+000 0.000000e+000 9.238797e-001
    outer loop
      vertex   -1.365000e+002 2.841421e+001 5.000000e+000
      vertex   -1.355000e+002 2.800000e+001 5.000000e+000
      vertex   -1.365000e+002 3.658578e+001 5.000000e+000
    endloop
  endfacet
  facet normal -0.000000e+000 0.000000e+000 9.619482e-001
    outer loop
      vertex   -1.365000e+002 3.658578e+001 5.000000e+000
      vertex   -1.355000e+002 2.800000e+001 5.000000e+000
      vertex   -1.355000e+002 3.700000e+001 5.000000e+000
    endloop
  endfacet
  facet normal 0.000000e+000 -0.000000e+000 9.238800e-001
    outer loop
      vertex   -1.365000e+002 3.658578e+001 5.000000e+000
      vertex   -1.355000e+002 3.700000e+001 5.000000e+000
      vertex   -1.384142e+002 3.850000e+001 5.000000e+000
    endloop
  endfacet
  facet normal -0.000000e+000 0.000000e+000 9.965862e-001
    outer loop
      vertex   -1.384142e+002 3.850000e+001 5.000000e+000
      vertex   -1.355000e+002 3.700000e+001 5.000000e+000
      vertex   -1.380000e+002 3.950000e+001 5.000000e+000
    endloop
  endfacet
  facet normal 0.000000e+000 -0.000000e+000 9.619482e-001
    outer loop
      vertex   -1.384142e+002 3.850000e+001 5.000000e+000
      vertex   -1.380000e+002 3.950000e+001 5.000000e+000
      vertex   -1.470000e+002 3.950000e+001 5.000000e+000
    endloop
  endfacet
  facet normal 0.000000e+000 0.000000e+000 9.238792e-001
    outer loop
      vertex   -1.365000e+002 2.841421e+001 5.000000e+000
      vertex   -1.384142e+002 2.650000e+001 5.000000e+000
      vertex   -1.355000e+002 2.800000e+001 5.000000e+000
    endloop
  endfacet
  facet normal 0.000000e+000 0.000000e+000 3.051018e-001
    outer loop
      vertex   -1.355000e+002 2.800000e+001 5.000000e+000
      vertex   -1.384142e+002 2.650000e+001 5.000000e+000
      vertex   -1.380000e+002 2.550000e+001 5.000000e+000
    endloop
  endfacet
  facet normal 0.000000e+000 0.000000e+000 8.734030e-001
    outer loop
      vertex   -1.380000e+002 2.550000e+001 5.000000e+000
      vertex   -1.384142e+002 2.650000e+001 5.000000e+000
      vertex   -1.465858e+002 2.650000e+001 5.000000e+000
    endloop
  endfacet
  facet normal 0.000000e+000 0.000000e+000 1.156895e-001
    outer loop
      vertex   -1.380000e+002 2.550000e+001 5.000000e+000
      vertex   -1.465858e+002 2.650000e+001 5.000000e+000
      vertex   -1.470000e+002 2.550000e+001 5.000000e+000
    endloop
  endfacet
  facet normal 0.000000e+000 -0.000000e+000 9.238800e-001
    outer loop
      vertex   -1.470000e+002 2.550000e+001 5.000000e+000
      vertex   -1.465858e+002 2.650000e+001 5.000000e+000
      vertex   -1.495000e+002 2.800000e+001 5.000000e+000
    endloop
  endfacet
  facet normal -0.000000e+000 0.000000e+000 7.630711e-001
    outer loop
      vertex   -1.495000e+002 2.800000e+001 5.000000e+000
      vertex   -1.465858e+002 2.650000e+001 5.000000e+000
      vertex   -1.485000e+002 2.841421e+001 5.000000e+000
    endloop
  endfacet
  facet normal 0.000000e+000 0.000000e+000 8.734038e-001
    outer loop
      vertex   -1.495000e+002 2.800000e+001 5.000000e+000
      vertex   -1.485000e+002 2.841421e+001 5.000000e+000
      vertex   -1.485000e+002 3.658578e+001 5.000000e+000
    endloop
  endfacet
  facet normal 0.000000e+000 0.000000e+000 1.156895e-001
    outer loop
      vertex   -1.495000e+002 2.800000e+001 5.000000e+000
      vertex   -1.485000e+002 3.658578e+001 5.000000e+000
      vertex   -1.495000e+002 3.700000e+001 5.000000e+000
    endloop
  endfacet
  facet normal -0.000000e+000 0.000000e+000 7.630721e-001
    outer loop
      vertex   -1.495000e+002 3.700000e+001 5.000000e+000
      vertex   -1.485000e+002 3.658578e+001 5.000000e+000
      vertex   -1.465858e+002 3.850000e+001 5.000000e+000
    endloop
  endfacet
  facet normal 0.000000e+000 0.000000e+000 3.051018e-001
    outer loop
      vertex   -1.495000e+002 3.700000e+001 5.000000e+000
      vertex   -1.465858e+002 3.850000e+001 5.000000e+000
      vertex   -1.470000e+002 3.950000e+001 5.000000e+000
    endloop
  endfacet
  facet normal 0.000000e+000 0.000000e+000 8.734030e-001
    outer loop
      vertex   -1.470000e+002 3.950000e+001 5.000000e+000
      vertex   -1.465858e+002 3.850000e+001 5.000000e+000
      vertex   -1.384142e+002 3.850000e+001 5.000000e+000
    endloop
  endfacet
  facet normal 0.000000e+000 0.000000e+000 9.824616e-001
    outer loop
      vertex   -1.365000e+002 3.658578e+001 2.500000e+000
      vertex   -1.465858e+002 3.850000e+001 2.500000e+000
      vertex   -1.365000e+002 2.841421e+001 2.500000e+000
    endloop
  endfacet
  facet normal 0.000000e+000 0.000000e+000 1.864647e-001
    outer loop
      vertex   -1.365000e+002 2.841421e+001 2.500000e+000
      vertex   -1.465858e+002 3.850000e+001 2.500000e+000
      vertex   -1.485000e+002 3.658578e+001 2.500000e+000
    endloop
  endfacet
  facet normal 0.000000e+000 0.000000e+000 9.824616e-001
    outer loop
      vertex   -1.365000e+002 2.841421e+001 2.500000e+000
      vertex   -1.485000e+002 3.658578e+001 2.500000e+000
      vertex   -1.384142e+002 2.650000e+001 2.500000e+000
    endloop
  endfacet
  facet normal 0.000000e+000 0.000000e+000 5.628550e-001
    outer loop
      vertex   -1.384142e+002 2.650000e+001 2.500000e+000
      vertex   -1.485000e+002 3.658578e+001 2.500000e+000
      vertex   -1.485000e+002 2.841421e+001 2.500000e+000
    endloop
  endfacet
  facet normal 0.000000e+000 0.000000e+000 1.864645e-001
    outer loop
      vertex   -1.384142e+002 2.650000e+001 2.500000e+000
      vertex   -1.485000e+002 2.841421e+001 2.500000e+000
      vertex   -1.465858e+002 2.650000e+001 2.500000e+000
    endloop
  endfacet
  facet normal 0.000000e+000 0.000000e+000 5.628548e-001
    outer loop
      vertex   -1.365000e+002 3.658578e+001 2.500000e+000
      vertex   -1.384142e+002 3.850000e+001 2.500000e+000
      vertex   -1.465858e+002 3.850000e+001 2.500000e+000
    endloop
  endfacet
  facet normal 0.000000e+000 1.000000e+000 -0.000000e+000
    outer loop
      vertex   -1.360000e+002 4.200000e+001 1.000000e+000
      vertex   -1.490000e+002 4.200000e+001 1.000000e+000
      vertex   -1.360000e+002 4.200000e+001 2.500000e+000
    endloop
  endfacet
  facet normal 0.000000e+000 1.146241e-001 0.000000e+000
    outer loop
      vertex   -1.360000e+002 4.200000e+001 2.500000e+000
      vertex   -1.490000e+002 4.200000e+001 1.000000e+000
      vertex   -1.490000e+002 4.200000e+001 2.500000e+000
    endloop
  endfacet
  facet normal 7.071068e-001 7.071068e-001 -0.000000e+000
    outer loop
      vertex   -1.330000e+002 3.900000e+001 1.000000e+000
      vertex   -1.360000e+002 4.200000e+001 1.000000e+000
      vertex   -1.330000e+002 3.900000e+001 2.500000e+000
    endloop
  endfacet
  facet normal 2.357023e-001 2.357023e-001 0.000000e+000
    outer loop
      vertex   -1.330000e+002 3.900000e+001 2.500000e+000
      vertex   -1.360000e+002 4.200000e+001 1.000000e+000
      vertex   -1.360000e+002 4.200000e+001 2.500000e+000
    endloop
  endfacet
  facet normal 1.000000e+000 0.000000e+000 0.000000e+000
    outer loop
      vertex   -1.330000e+002 2.600000e+001 1.000000e+000
      vertex   -1.330000e+002 3.900000e+001 1.000000e+000
      vertex   -1.330000e+002 2.600000e+001 2.500000e+000
    endloop
  endfacet
  facet normal 1.146241e-001 -0.000000e+000 0.000000e+000
    outer loop
      vertex   -1.330000e+002 2.600000e+001 2.500000e+000
      vertex   -1.330000e+002 3.900000e+001 1.000000e+000
      vertex   -1.330000e+002 3.900000e+001 2.500000e+000
    endloop
  endfacet
  facet normal 7.071068e-001 -7.071068e-001 0.000000e+000
    outer loop
      vertex   -1.360000e+002 2.300000e+001 1.000000e+000
      vertex   -1.330000e+002 2.600000e+001 1.000000e+000
      vertex   -1.360000e+002 2.300000e+001 2.500000e+000
    endloop
  endfacet
  facet normal 2.357023e-001 -2.357023e-001 0.000000e+000
    outer loop
      vertex   -1.360000e+002 2.300000e+001 2.500000e+000
      vertex   -1.330000e+002 2.600000e+001 1.000000e+000
      vertex   -1.330000e+002 2.600000e+001 2.500000e+000
    endloop
  endfacet
  facet normal 0.000000e+000 0.000000e+000 6.332378e-001
    outer loop
      vertex   -1.520000e+002 2.600000e+001 2.500000e+000
      vertex   -1.490000e+002 2.300000e+001 2.500000e+000
      vertex   -1.470000e+002 2.550000e+001 2.500000e+000
    endloop
  endfacet
  facet normal 0.000000e+000 0.000000e+000 8.998964e-001
    outer loop
      vertex   -1.470000e+002 2.550000e+001 2.500000e+000
      vertex   -1.490000e+002 2.300000e+001 2.500000e+000
      vertex   -1.360000e+002 2.300000e+001 2.500000e+000
    endloop
  endfacet
  facet normal -0.000000e+000 0.000000e+000 2.216211e-001
    outer loop
      vertex   -1.470000e+002 2.550000e+001 2.500000e+000
      vertex   -1.360000e+002 2.300000e+001 2.500000e+000
      vertex   -1.380000e+002 2.550000e+001 2.500000e+000
    endloop
  endfacet
  facet normal -0.000000e+000 0.000000e+000 8.391530e-001
    outer loop
      vertex   -1.380000e+002 2.550000e+001 2.500000e+000
      vertex   -1.360000e+002 2.300000e+001 2.500000e+000
      vertex   -1.330000e+002 2.600000e+001 2.500000e+000
    endloop
  endfacet
  facet normal 0.000000e+000 0.000000e+000 6.332378e-001
    outer loop
      vertex   -1.380000e+002 2.550000e+001 2.500000e+000
      vertex   -1.330000e+002 2.600000e+001 2.500000e+000
      vertex   -1.355000e+002 2.800000e+001 2.500000e+000
    endloop
  endfacet
  facet normal -0.000000e+000 0.000000e+000 7.808688e-001
    outer loop
      vertex   -1.355000e+002 2.800000e+001 2.500000e+000
      vertex   -1.330000e+002 2.600000e+001 2.500000e+000
      vertex   -1.355000e+002 3.700000e+001 2.500000e+000
    endloop
  endfacet
  facet normal -0.000000e+000 0.000000e+000 8.998964e-001
    outer loop
      vertex   -1.355000e+002 3.700000e+001 2.500000e+000
      vertex   -1.330000e+002 2.600000e+001 2.500000e+000
      vertex   -1.330000e+002 3.900000e+001 2.500000e+000
    endloop
  endfacet
  facet normal 0.000000e+000 -0.000000e+000 9.938837e-001
    outer loop
      vertex   -1.355000e+002 3.700000e+001 2.500000e+000
      vertex   -1.330000e+002 3.900000e+001 2.500000e+000
      vertex   -1.380000e+002 3.950000e+001 2.500000e+000
    endloop
  endfacet
  facet normal -0.000000e+000 0.000000e+000 8.391530e-001
    outer loop
      vertex   -1.380000e+002 3.950000e+001 2.500000e+000
      vertex   -1.330000e+002 3.900000e+001 2.500000e+000
      vertex   -1.360000e+002 4.200000e+001 2.500000e+000
    endloop
  endfacet
  facet normal 0.000000e+000 -0.000000e+000 8.998964e-001
    outer loop
      vertex   -1.380000e+002 3.950000e+001 2.500000e+000
      vertex   -1.360000e+002 4.200000e+001 2.500000e+000
      vertex   -1.490000e+002 4.200000e+001 2.500000e+000
    endloop
  endfacet
  facet normal 0.000000e+000 0.000000e+000 2.216211e-001
    outer loop
      vertex   -1.380000e+002 3.950000e+001 2.500000e+000
      vertex   -1.490000e+002 4.200000e+001 2.500000e+000
      vertex   -1.470000e+002 3.950000e+001 2.500000e+000
    endloop
  endfacet
  facet normal 0.000000e+000 0.000000e+000 8.391530e-001
    outer loop
      vertex   -1.470000e+002 3.950000e+001 2.500000e+000
      vertex   -1.490000e+002 4.200000e+001 2.500000e+000
      vertex   -1.520000e+002 3.900000e+001 2.500000e+000
    endloop
  endfacet
  facet normal 0.000000e+000 0.000000e+000 6.332378e-001
    outer loop
      vertex   -1.470000e+002 3.950000e+001 2.500000e+000
      vertex   -1.520000e+002 3.900000e+001 2.500000e+000
      vertex   -1.495000e+002 3.700000e+001 2.500000e+000
    endloop
  endfacet
  facet normal 0.000000e+000 0.000000e+000 8.998964e-001
    outer loop
      vertex   -1.495000e+002 3.700000e+001 2.500000e+000
      vertex   -1.520000e+002 3.900000e+001 2.500000e+000
      vertex   -1.520000e+002 2.600000e+001 2.500000e+000
    endloop
  endfacet
  facet normal 0.000000e+000 0.000000e+000 2.216211e-001
    outer loop
      vertex   -1.495000e+002 3.700000e+001 2.500000e+000
      vertex   -1.520000e+002 2.600000e+001 2.500000e+000
      vertex   -1.495000e+002 2.800000e+001 2.500000e+000
    endloop
  endfacet
  facet normal 0.000000e+000 0.000000e+000 9.938837e-001
    outer loop
      vertex   -1.495000e+002 2.800000e+001 2.500000e+000
      vertex   -1.520000e+002 2.600000e+001 2.500000e+000
      vertex   -1.470000e+002 2.550000e+001 2.500000e+000
    endloop
  endfacet
endsolid
